<?xml version="1.0" encoding="UTF-8" standalone="no"?>
<!-- Created with Inkscape (http://www.inkscape.org/) -->
<svg
   xmlns:i="http://ns.adobe.com/AdobeIllustrator/10.0/"
   xmlns:dc="http://purl.org/dc/elements/1.1/"
   xmlns:cc="http://creativecommons.org/ns#"
   xmlns:rdf="http://www.w3.org/1999/02/22-rdf-syntax-ns#"
   xmlns:svg="http://www.w3.org/2000/svg"
   xmlns="http://www.w3.org/2000/svg"
   xmlns:xlink="http://www.w3.org/1999/xlink"
   xmlns:sodipodi="http://sodipodi.sourceforge.net/DTD/sodipodi-0.dtd"
   xmlns:inkscape="http://www.inkscape.org/namespaces/inkscape"
   width="32"
   height="32"
   id="svg2"
   sodipodi:version="0.32"
   inkscape:version="0.46"
   version="1.0"
   sodipodi:docname="grassShell.svg"
   inkscape:output_extension="org.inkscape.output.svg.inkscape"
   inkscape:export-filename="/home/timlinux/dev/cpp/grass_tidyup_branch/src/plugins/grass/grass_shell.png"
   inkscape:export-xdpi="93.08168"
   inkscape:export-ydpi="93.08168">
  <defs
     id="defs4">
    <linearGradient
       id="linearGradient3162">
      <stop
         style="stop-color:#000000;stop-opacity:1;"
         offset="0"
         id="stop3164" />
      <stop
         style="stop-color:#ffffff;stop-opacity:0;"
         offset="1"
         id="stop3166" />
    </linearGradient>
    <inkscape:perspective
       sodipodi:type="inkscape:persp3d"
       inkscape:vp_x="0 : 526.18109 : 1"
       inkscape:vp_y="0 : 1000 : 0"
       inkscape:vp_z="744.09448 : 526.18109 : 1"
       inkscape:persp3d-origin="372.04724 : 350.78739 : 1"
       id="perspective10" />
    <linearGradient
       inkscape:collect="always"
       xlink:href="#linearGradient3162"
       id="linearGradient3168"
       x1="-16.289406"
       y1="1.3229975"
       x2="-16.289406"
       y2="17.705786"
       gradientUnits="userSpaceOnUse"
       gradientTransform="matrix(0.9226914,0,0,1,28.458666,1.9844962)" />
  </defs>
  <sodipodi:namedview
     id="base"
     pagecolor="#ffffff"
     bordercolor="#666666"
     borderopacity="1.0"
     inkscape:pageopacity="0.0"
     inkscape:pageshadow="2"
     inkscape:zoom="24.1875"
     inkscape:cx="16"
     inkscape:cy="16"
     inkscape:document-units="px"
     inkscape:current-layer="layer1"
     showgrid="false"
     inkscape:window-width="1680"
     inkscape:window-height="975"
     inkscape:window-x="0"
     inkscape:window-y="49" />
  <metadata
     id="metadata7">
    <rdf:RDF>
      <cc:Work
         rdf:about="">
        <dc:format>image/svg+xml</dc:format>
        <dc:type
           rdf:resource="http://purl.org/dc/dcmitype/StillImage" />
      </cc:Work>
    </rdf:RDF>
  </metadata>
  <g
     inkscape:label="Camada 1"
     inkscape:groupmode="layer"
     id="layer1">
    <rect
       style="opacity:1;fill:#000000;fill-opacity:1;fill-rule:nonzero;stroke:#2d2d2d;stroke-width:2.39174938;stroke-linecap:round;stroke-linejoin:round;stroke-miterlimit:4;stroke-dasharray:none;stroke-dashoffset:0;stroke-opacity:1"
       id="rect2383"
       width="28.383446"
       height="28.548819"
       x="1.8909651"
       y="1.6842467"
       rx="2.8174019"
       ry="2.6107371" />
    <path
       style="fill:url(#linearGradient3168);fill-opacity:1;fill-rule:nonzero;stroke:none;stroke-width:2.39174938;stroke-linecap:round;stroke-linejoin:round;stroke-miterlimit:4;stroke-dashoffset:0;stroke-opacity:0"
       d="M 7.1502605,2.7344962 C 6.2521782,2.7978649 5.3155735,2.7154205 4.4688251,3.1094422 C 4.0881899,3.4066417 3.63032,3.6638022 3.4594951,4.1719962 C 3.1101023,4.7329232 3.190048,5.4398544 3.0846517,6.0782462 C 3.0900984,7.484618 3.0808908,8.8908713 3.0558176,10.296995 C 3.0282098,13.262624 2.9907467,16.228194 2.9693153,19.193859 C 2.9693153,22.436571 8.9584645,8.4803178 16.549807,15.071866 C 22.532,21.650614 27.347926,17.098749 29.028289,13.29606 C 29.04676,8.8017828 29.103379,10.385024 29.121851,5.8907462 C 28.994395,4.947049 28.603479,3.957244 27.83629,3.4310803 C 27.007591,3.0360274 26.086783,3.0571929 25.200412,3.0157462 C 23.787015,2.9803968 22.374131,2.9287157 20.961798,2.8594962 C 19.261804,2.8166746 17.561686,2.7823603 15.861244,2.7703382 C 13.418944,2.746144 10.97661,2.7259112 8.5342977,2.7032462 C 8.072952,2.7136628 7.6116062,2.7240795 7.1502605,2.7344962 z"
       id="rect3159"
       sodipodi:nodetypes="ccccccccccccccc" />
    <text
       xml:space="preserve"
       style="font-size:7.74523306px;font-style:normal;font-weight:normal;fill:#f2f2f2;fill-opacity:1;stroke:none;stroke-width:1px;stroke-linecap:butt;stroke-linejoin:miter;stroke-opacity:1;font-family:Bitstream Vera Sans"
       x="7.9391732"
       y="7.3382912"
       id="text3155"
       transform="scale(0.6454361,1.5493401)"><tspan
         sodipodi:role="line"
         id="tspan3157"
         x="7.9391732"
         y="7.3382912">&gt;</tspan></text>
    <rect
       style="opacity:1;fill:none;fill-opacity:0;fill-rule:nonzero;stroke:#cccccc;stroke-width:0.99199998;stroke-linecap:round;stroke-linejoin:round;stroke-miterlimit:4;stroke-dasharray:none;stroke-dashoffset:0;stroke-opacity:0.72413791"
       id="rect3170"
       width="28.383446"
       height="28.548819"
       x="1.9323081"
       y="1.7255905"
       rx="2.8174019"
       ry="2.6107371" />
    <g
       style="display:inline"
       id="g3585"
       transform="matrix(0.2050188,0,0,0.2050188,3.4238284,3.2313601)">
      <path
         style="fill:#61a121;fill-rule:evenodd;stroke-width:1.61249995;stroke-miterlimit:10;stroke-dasharray:none"
         id="path12528"
         i:knockout="Off"
         d="M 99.848713,49.316289 C 101.66294,45.21788 103.80308,42.137009 106.43238,39.870465 C 109.08311,37.576773 112.04888,36.300995 115.53579,35.839538 C 112.89594,40.874799 111.27726,44.661424 110.6363,47.566236 C 110.0388,50.388485 112.1029,50.362095 111.75525,52.818652 C 111.40763,55.247688 107.98558,56.713855 108.52875,62.088417 C 109.14798,67.490127 115.23161,76.922758 115.25334,84.835308 C 115.28594,92.69357 110.20176,102.50585 108.66998,108.99369 C 107.18167,115.41296 106.38863,120.13682 106.29055,123.27123 L 93.145853,123.27123 C 90.549156,111.65421 88.963069,102.5198 88.224335,95.299421 C 87.539929,88.133334 87.007912,88.079045 88.930472,80.42399 C 90.89709,72.6743 94.492951,62.481256 99.848713,49.316289 z"
         clip-rule="evenodd" />
      <path
         sodipodi:nodetypes="cccccccccccccccccccccccccsccccccccccccc"
         style="fill-rule:evenodd;stroke:#000000;stroke-width:1.61249995;stroke-miterlimit:10;stroke-dasharray:none"
         id="path12530"
         stroke-miterlimit="10"
         i:knockout="Off"
         d="M 94.413395,124.46479 C 92.188196,118.12683 90.571386,112.02288 89.518643,105.83645 C 88.49814,99.608558 87.934091,92.9668 88.20572,87.623093 C 88.520157,82.292809 90.072143,78.260571 91.23342,74.089864 C 92.427567,69.878111 93.566844,67.129733 95.238525,62.642182 C 96.953318,58.071397 99.123629,51.194506 101.29455,47.231315 C 103.50859,43.309169 105.98281,40.920593 108.25141,39.166845 C 110.54141,37.357861 112.66861,36.543133 114.79582,36.570747 C 112.20193,41.611039 110.71506,45.421949 110.12899,48.115474 C 109.6406,50.766808 111.52904,51.304591 111.51819,52.603025 C 111.47476,53.859263 110.54141,54.577712 109.89022,55.82091 C 109.2933,57.062955 107.96921,57.988158 107.9258,60.087515 C 107.90409,62.144678 108.83747,64.85163 109.80339,68.207221 C 110.81274,71.590433 113.16785,76.202644 113.89502,80.180028 C 114.64387,84.101405 115.04543,87.236056 114.22061,91.765416 C 113.40663,96.3362 110.37861,102.7854 109.06538,107.16285 C 107.77385,111.45709 107.15524,114.49506 106.53661,117.45061 C 105.95055,120.37771 95.618554,122.4257 95.553424,124.33171 L 107.26407,124.64509 C 107.34003,120.80616 107.70905,117.22964 108.4145,113.65311 C 109.1525,110.07659 110.3572,107.01094 111.4425,103.44824 C 112.56038,99.802652 114.21006,95.784224 114.88295,92.303969 C 115.54499,88.810666 115.84887,86.117142 115.37134,82.789167 C 114.9155,79.405955 113.22242,75.650287 112.18053,72.474209 C 111.1929,69.284322 109.99905,65.94216 109.39128,63.940233 C 108.81607,61.924115 108.33851,61.758024 108.66412,60.404741 C 109.01142,58.968601 110.75877,57.035722 111.35569,55.61301 C 111.98517,54.17687 112.441,53.155001 112.34332,51.967428 C 112.2565,50.766425 110.65023,50.034548 110.79133,48.431935 C 110.98669,46.747616 112.43014,44.538555 113.32009,42.286916 C 114.19921,40.049857 115.10002,37.675087 116.02251,35.106223 C 113.22242,35.368595 110.56341,36.4457 108.00208,38.337536 C 105.41904,40.229372 103.0202,42.314537 100.71965,46.402006 C 98.472757,50.475282 96.595462,56.621064 94.500506,62.489137 C 92.416712,68.316924 89.46498,75.608091 88.281977,81.117507 C 87.120701,86.544453 87.229233,89.223789 87.554831,95.064236 C 87.945235,100.94689 89.486673,110.90357 90.420046,115.98528 C 91.353419,120.95617 92.264777,123.88404 93.155037,124.82266 C 93.566538,124.71376 93.989813,124.58947 94.413395,124.46479 z"
         clip-rule="evenodd" />
      <path
         style="fill:#61a121;fill-rule:evenodd;stroke-width:1.61249995;stroke-miterlimit:10;stroke-dasharray:none"
         id="path12534"
         i:knockout="Off"
         d="M 97.447435,121.68737 C 93.141419,116.86768 89.145997,112.09171 85.255716,107.14856 C 81.36738,102.14995 76.989903,98.302728 74.342685,92.209049 C 71.75747,86.0726 70.39016,76.519976 69.754376,70.888664 C 69.138644,65.283965 72.182348,65.08155 70.663837,58.716863 C 69.133414,52.256619 65.897901,43.725863 60.746876,32.654025 C 65.333689,36.412344 68.817862,40.578078 71.419496,45.307368 C 74.009074,50.064396 74.345084,56.361718 76.19968,60.803142 C 78.085026,65.175204 80.910498,67.383917 82.661118,71.501242 C 84.402944,75.591182 84.529944,80.216523 86.689694,85.302727 C 88.910113,90.345829 93.91815,95.605192 95.739616,101.71382 C 97.550703,107.8232 98.091345,114.35914 97.447435,121.68737 z"
         clip-rule="evenodd" />
      <path
         sodipodi:nodetypes="csccscccccccccccccccccccccscccccscccccc"
         style="fill-rule:evenodd;stroke:#000000;stroke-width:1.61249995;stroke-miterlimit:10;stroke-dasharray:none"
         id="path12536"
         stroke-miterlimit="10"
         i:knockout="Off"
         d="M 98.223107,116.18444 C 98.709701,111.10133 98.215746,106.36559 96.612189,101.61492 C 95.004012,96.851136 91.834839,93.27359 89.37512,89.256554 C 87.628569,85.86248 86.813255,84.137621 85.958645,81.504676 C 85.106535,78.817019 84.605062,74.710861 83.582519,72.220369 C 82.568892,69.756879 81.139033,68.741884 79.924021,66.790741 C 78.71816,64.770989 77.484067,62.765891 76.515239,60.39642 C 75.624041,57.969979 75.08698,54.997763 74.396309,52.550254 C 73.689763,50.089638 73.779462,48.488729 72.382792,45.929433 C 70.977519,43.315814 68.29702,39.59984 66.165305,37.189248 C 64.066274,34.777509 62.041553,32.977679 59.920194,31.645554 C 60.705804,33.434247 61.664078,35.681181 62.814741,38.440294 C 63.986985,41.19865 65.531332,44.421916 66.802474,48.078105 C 68.086626,51.679213 69.914184,56.722451 70.318134,59.903795 C 70.67032,63.032338 69.2856,64.310366 69.115201,66.733093 C 69.011463,69.099617 69.16391,71.0744 69.589112,74.132098 C 69.997659,77.20366 70.732445,81.506853 71.598294,84.94511 C 72.495966,88.287042 72.873699,90.745156 74.908852,94.306249 C 76.998305,97.865441 80.906775,102.42559 83.886913,106.18605 C 86.862172,109.93189 89.71998,113.31465 92.593492,116.58648 C 92.41986,115.78724 91.556651,114.3973 89.989539,112.25329 C 88.407299,110.09654 85.288606,106.4096 83.218704,103.83296 C 81.19226,101.25556 79.644426,99.875227 77.854553,96.824837 C 76.08,93.69159 73.87604,89.09856 72.656925,85.372263 C 71.476084,81.630587 71.105452,77.492523 70.747036,74.62367 C 70.4263,71.739454 70.452086,70.235997 70.625531,68.222845 C 70.818343,66.139975 72.028512,65.141952 71.786883,62.419595 C 71.544627,59.723813 70.812747,56.758813 69.101237,52.011935 C 67.383946,47.156016 64.854411,41.208796 61.483528,33.747973 C 64.700382,36.816944 67.196867,39.610758 69.168787,42.436645 C 71.101574,45.181967 72.220594,47.573476 73.118154,50.32782 C 74.044883,53.040168 73.42185,55.574756 74.756038,58.914642 C 76.133403,62.253013 79.739168,67.657182 81.140608,70.229968 C 82.517375,72.763025 82.324514,71.909463 83.001688,74.070671 C 83.679815,76.204536 84.167985,79.996692 85.31028,82.947666 C 86.488595,85.815058 90.273606,91.395049 91.840582,94.249556 C 93.436029,97.060963 93.553625,96.983596 94.723972,100.01477 C 95.878593,103.03321 96.307766,106.84223 96.867104,109.56747 C 97.443253,112.27847 97.920416,114.43304 98.223107,116.18444 z"
         clip-rule="evenodd" />
      <path
         sodipodi:nodetypes="ccccccccc"
         style="fill:#61a121;fill-rule:evenodd;stroke:#000000;stroke-width:1.61249995;stroke-miterlimit:10;stroke-dasharray:none"
         id="path12540"
         stroke-miterlimit="10"
         i:knockout="Off"
         d="M 95.557986,99.454387 C 96.655212,90.003176 97.111477,81.552863 96.970243,73.660849 C 96.81816,65.730303 96.666078,59.493654 94.591111,52.506296 C 92.41839,45.499695 88.909436,36.645188 84.270676,32.102445 C 79.599303,27.598196 73.906761,25.423071 66.899735,25.577596 C 68.876912,26.790281 71.11481,29.889359 73.743813,34.797831 C 76.372817,39.725015 80.392363,44.133017 82.532488,55.008656 C 84.618303,65.885368 87.401925,65.746716 87.793014,84.726136 C 90.900013,84.725606 92.440121,99.454387 95.557986,99.454387 z"
         clip-rule="evenodd" />
      <path
         sodipodi:nodetypes="cccccccccccccccccccccc"
         style="fill-rule:evenodd;stroke:#000000;stroke-width:1.61249995;stroke-miterlimit:10;stroke-dasharray:none"
         id="path12542"
         stroke-miterlimit="10"
         i:knockout="Off"
         d="M 87.116133,76.190188 C 86.409996,68.066622 83.521077,58.58896 81.663403,51.928297 C 79.729671,45.268706 76.28591,39.552312 73.635175,34.989252 C 70.995323,30.388756 68.453227,27.001486 65.921995,24.614084 C 68.344589,24.440841 70.951862,24.825821 73.743813,25.769017 C 76.557496,26.654467 79.816578,27.752188 82.641126,30.177019 C 85.422212,32.679379 88.301071,36.625945 90.354306,40.378944 C 92.353214,44.074739 93.537347,47.96302 94.699749,52.121323 C 95.851303,56.221341 96.709522,59.935847 97.187518,64.825609 C 97.611204,69.676336 97.600339,75.085241 97.404794,80.974879 C 97.187518,86.807296 96.731253,92.927945 95.99252,99.646357 L 95.1343,99.454387 C 95.905613,93.660469 96.372744,87.905055 96.535709,81.745905 C 96.676926,75.605549 97.089746,69.348569 96.101158,62.901248 C 95.047393,56.395117 92.852941,48.464563 90.571582,43.266817 C 88.311936,38.030577 86.269584,34.816009 82.641126,31.909959 C 78.969224,29.022619 74.39564,27.040513 68.746544,25.962576 C 70.723721,28.310411 72.668318,31.140538 74.710671,34.605337 C 76.75304,38.05036 79.284272,42.57332 80.794301,46.538597 C 82.260903,50.369133 82.717168,53.487461 83.510211,57.895463 C 84.270676,62.284747 86.99663,67.392909 87.550685,74.45778 C 93.795476,92.749736 88.535673,105.82389 87.116133,76.190188 z"
         clip-rule="evenodd" />
      <path
         style="fill:#61a121;fill-rule:evenodd;stroke-width:1.61249995;stroke-miterlimit:10;stroke-dasharray:none"
         id="path12396"
         i:knockout="Off"
         d="M 105.12298,100.29204 C 104.46374,96.461107 105.64643,91.139377 108.76944,84.017437 C 111.9455,76.841687 116.85263,68.309493 123.79762,57.856469 C 123.63552,62.760789 122.941,68.213448 121.59648,74.632254 C 120.23727,81.011157 118.16812,89.062759 115.89814,95.914624 C 113.70891,102.74072 111.229,109.05837 108.43671,115.23535 C 107.33941,110.25412 106.23112,105.27346 105.12298,100.29204 z"
         clip-rule="evenodd" />
      <path
         style="fill-rule:evenodd;stroke:#000000;stroke-width:1.61249995;stroke-miterlimit:10;stroke-dasharray:none"
         id="path12398"
         stroke-miterlimit="10"
         i:knockout="Off"
         d="M 104.13523,97.270923 C 104.49266,94.395062 105.48591,90.878657 107.30684,86.560083 C 109.15645,82.202369 112.05867,76.448717 114.91905,71.483492 C 117.81679,66.491735 120.86068,61.718914 124.34546,56.914199 C 124.53759,57.733174 124.20299,60.418757 123.39956,65.135462 C 122.58542,69.851226 121.03515,78.903889 119.49374,85.021691 C 117.97298,91.084349 116.23214,96.056054 114.30473,101.40509 C 112.42551,106.72778 110.3918,111.69433 108.18209,116.67176 L 107.60005,114.92196 C 110.25163,109.23186 112.53202,103.67155 114.53987,97.9301 C 116.59963,92.202783 118.16684,87.105682 119.61886,80.755601 C 121.09004,74.297487 122.25727,67.467006 123.21192,59.748847 C 119.46947,65.147889 116.30553,70.352452 113.56207,75.578763 C 110.8403,80.805451 108.45669,86.948087 106.9321,90.82254 C 105.47376,94.63019 104.70645,97.117475 104.69753,98.395466 C 104.51297,98.024824 104.32829,97.654933 104.13523,97.270923 z"
         clip-rule="evenodd" />
    </g>
  </g>
</svg>
